<svg width="55" height="50" viewBox="0 0 55 50" fill="none" xmlns="http://www.w3.org/2000/svg">
<g clip-path="url(#clip0_2_36)">
<path d="M27.5 4.34784C23.75 4.34784 20.8203 5.54802 18.7109 7.94838C16.6016 10.3487 15.5469 13.4171 15.5469 17.1535C15.5208 21.7958 17.2396 25.4756 20.7031 28.1929C21.1458 28.5553 21.3021 29.0195 21.1719 29.5856L20.2734 31.216C19.987 31.7595 19.5638 32.1841 19.0039 32.4898C18.444 32.7955 17.2656 33.2314 15.4688 33.7976C15.3906 33.8202 13.7435 34.2844 10.5273 35.1902C7.3112 36.096 5.59896 36.5942 5.39062 36.6848C3.20312 37.4774 1.77083 38.3039 1.09375 39.1644C0.364583 40.591 0 44.2029 0 50H55C55 44.2029 54.6354 40.591 53.9062 39.1644C53.2292 38.3039 51.7969 37.4774 49.6094 36.6848C49.401 36.5942 47.6888 36.096 44.4727 35.1902C41.2565 34.2844 39.6094 33.8202 39.5312 33.7976C37.7344 33.2314 36.556 32.7955 35.9961 32.4898C35.4362 32.1841 35.013 31.7595 34.7266 31.216L33.8281 29.5856C33.6979 29.0195 33.8542 28.5553 34.2969 28.1929C37.7604 25.4756 39.4792 21.7958 39.4531 17.1535C39.4531 13.4171 38.3984 10.3487 36.2891 7.94838C34.1797 5.54802 31.25 4.34784 27.5 4.34784Z" fill="#48515B"/>
</g>
<defs>
<clipPath id="clip0_2_36">
<rect width="55" height="50" fill="white"/>
</clipPath>
</defs>
</svg>
